<svg xmlns="http://www.w3.org/2000/svg" viewBox="0 0 130 190"><defs><style>.cls-1{fill:#999;}.cls-1,.cls-3,.cls-6{stroke:#000;}.cls-1,.cls-3,.cls-6,.cls-7,.cls-8{stroke-miterlimit:10;}.cls-2{fill:gray;}.cls-3,.cls-4,.cls-6{fill:#666;}.cls-5{fill:#4d4d4d;}.cls-6,.cls-7{stroke-linecap:round;stroke-width:0.75px;}.cls-7{fill:none;}.cls-7,.cls-8{stroke:#666;}.cls-8{stroke-width:0.25px;}</style></defs><title>chum-bucket_logo</title><g id="Layer_1" data-name="Layer 1"><path class="cls-1" d="M124,55,105.24,178a7,7,0,0,1-6.9,6H31.66a7,7,0,0,1-6.9-6L6,55"/><path class="cls-2" d="M114.88,61.48l-5.82,45.79-.07.42c0,.59,0,.72-.12,1.27-5.39,38.06-28.51,69.59-63.68,69.59-.62,0-1.23,0-1.84,0H25.28a6.93,6.93,0,0,0,6.61,4.93H98.05a7,7,0,0,0,6.86-5.94l18-118.88A27.59,27.59,0,0,1,119,60.41,29.1,29.1,0,0,1,114.88,61.48Z"/><ellipse class="cls-3" cx="64.97" cy="56" rx="59.31" ry="10"/><ellipse class="cls-4" cx="65" cy="56" rx="55.5" ry="6.5"/><path d="M65,50a341.23,341.23,0,0,1,38.79,2c15.34,1.85,16.2,4,16.21,4h0s-.81,2.2-16.21,4.06A341.23,341.23,0,0,1,65,62a341.23,341.23,0,0,1-38.79-2C10.87,58.19,10,56,10,56h0s.81-2.2,16.21-4.06A341.23,341.23,0,0,1,65,50m0-1C34.07,49,9,52.13,9,56s25.07,7,56,7,56-3.13,56-7-25.07-7-56-7Z"/><path class="cls-5" d="M64.06,50c-30,0-53.33,2.72-54,6,9.09-2,26.63-3.41,48.1-3.41,30.4,0,55.39,1.94,55.39,5.29,0,0-.6.69-.61.74,3.78-.82,7.26-2.19,7-2.65C118.26,53,94.46,50,64.06,50Z"/><path class="cls-6" d="M65,6A60,60,0,0,0,6,56H9C13.53,29,37.36,9,65,9s51.47,20,56,47h3A60,60,0,0,0,65,6Z"/><path class="cls-7" d="M7.4,55.4c0,.35,0,.7,0,1.05"/><path class="cls-7" d="M7.05,55.45v1.12"/><path class="cls-7" d="M7.91,55.45v1.17"/><path class="cls-7" d="M8.35,55.34a2.68,2.68,0,0,0,.47,1.35"/><path class="cls-7" d="M6.56,56.44l-.11-.15a.77.77,0,0,1-.1-.57,1.2,1.2,0,0,1,.15-.3.27.27,0,0,1,.08-.1.21.21,0,0,1,.13,0"/><path class="cls-7" d="M122.55,55.45c0,.35,0,.7,0,1"/><path class="cls-7" d="M122.9,55.5v1.12"/><path class="cls-7" d="M122,55.5v1.17"/><path class="cls-7" d="M121.6,55.39a2.56,2.56,0,0,1-.47,1.36"/><path class="cls-7" d="M123.39,56.49l.11-.15a.72.72,0,0,0,.1-.57.94.94,0,0,0-.15-.3.39.39,0,0,0-.08-.1.21.21,0,0,0-.13,0"/></g><g id="Layer_4" data-name="Layer 4"><path class="cls-8" d="M25.79,175.16h0Z"/><path class="cls-8" d="M25.53,174.38h0Z"/><path class="cls-8" d="M25.33,173.63h0Z"/></g><g id="Layer_2" data-name="Layer 2"><path d="M27.69,154.26l-2.3-.06-5.73-32.12,2.32.07,3.07,17a10.18,10.18,0,0,1,3.88-2.64,8.1,8.1,0,0,1,2.67-.34,8.27,8.27,0,0,1,7.53,5.08,8.7,8.7,0,0,1,.84,3.87A8.19,8.19,0,0,1,35.84,152a7.92,7.92,0,0,1-4.54,1.37,10.69,10.69,0,0,1-3.93-1Zm-2.1-11.83,1.19,6.5A10.85,10.85,0,0,0,29,150.57a5.35,5.35,0,0,0,2.26.56,6.25,6.25,0,0,0,6.33-6.34,5.86,5.86,0,0,0-2.75-5.3,5.73,5.73,0,0,0-3.21-1,5.47,5.47,0,0,0-2.51.46A7.23,7.23,0,0,0,27,140.37,11.49,11.49,0,0,0,25.59,142.43Z"/><path d="M41,137.27h2.28l.06,9.58a18.76,18.76,0,0,0,.2,3.18v0a2.09,2.09,0,0,0,2,1.6,18.22,18.22,0,0,0,4-.13c.83-.38,1.22-2,1.21-4.62l-.09-9.69h2.27l.11,10c0,1.63,0,2.73-.11,3.3A4.42,4.42,0,0,1,51,153.67a3.86,3.86,0,0,1-1,.39c-1,.23-6.08.05-7-.53A3.87,3.87,0,0,1,41.29,151a21.5,21.5,0,0,1-.16-3.52Z"/><path d="M70.42,141.89l-1.92,1q-2.75-4.06-6.84-3.3a6.26,6.26,0,0,0-4.34,3,6,6,0,0,0-.79,4.34,5.73,5.73,0,0,0,2.66,3.91,6.29,6.29,0,0,0,4.7.94,7.08,7.08,0,0,0,4.39-3l1.86,1.36-.08.18a8.75,8.75,0,0,1-7.87,3.9,8.14,8.14,0,0,1-6.95-4.42,8.35,8.35,0,0,1-.91-2.53,8.58,8.58,0,0,1,7.49-10,8.32,8.32,0,0,1,7.75,3.12A11.81,11.81,0,0,1,70.42,141.89Z"/><path d="M78.06,137.82l2.71,0-4,4.67,4.58,11.6H79L74.4,143.25l0,10.81H72.1V122.14l2.26,0,0,19.66Z"/><path d="M96.14,147.42l1.91.93a7.94,7.94,0,0,1-5.85,5.56,8.11,8.11,0,0,1-7.86-1.81,8.43,8.43,0,0,1-2.79-4.78,7.92,7.92,0,0,1-.13-2.69A8.23,8.23,0,0,1,86.21,138a7,7,0,0,1,1.91-.69,8.38,8.38,0,0,1,6.17.9,8,8,0,0,1,3.91,5.1l-13.9,0a7.31,7.31,0,0,0-.25,3.77,6.82,6.82,0,0,0,.82,2,5.88,5.88,0,0,0,4.95,2.66,9.92,9.92,0,0,0,1.67-.19,5.25,5.25,0,0,0,3.72-2.57A17.75,17.75,0,0,0,96.14,147.42Zm-2.1-6.2a4.69,4.69,0,0,0-2.26-1.51,5.22,5.22,0,0,0-2.75-.19,6.45,6.45,0,0,0-3,1.7Z"/><path d="M107.37,138l-.35,2.3-3.72-.6-.6,4.18a30,30,0,0,0-.38,3.15,5.14,5.14,0,0,0,1.26,3.55,6,6,0,0,0,1.91,1.08l-.37,2.35c-.42-.12-.82-.25-1.19-.39a5.55,5.55,0,0,1-3.64-3.7,13.27,13.27,0,0,1,0-5.58l3.35-22.15,2.32-.13-2.23,15.36Z"/></g><g id="Layer_3" data-name="Layer 3"><path d="M45.78,131.77a13.94,13.94,0,0,1-7.52,1.88c-8,0-14.07-7-14.07-20,0-12.38,6-20.78,14.87-20.78a11.68,11.68,0,0,1,6.76,1.77l-.89,3.14a10.3,10.3,0,0,0-5.74-1.64c-6.68,0-12.14,7-12.14,17.33,0,9.68,5,16.93,12,16.93a11.26,11.26,0,0,0,6-1.65Z"/><path d="M51.76,104.68l7.64,0,0-11.85h3.21l-.28,40.89h-3.2l.18-26.1-7.64,0-.14,26H48.35l.28-40.79h3.16Z"/><path d="M79.28,92.9l0,17.23a26,26,0,0,1-.29,4.71,6.59,6.59,0,0,1-3.08,4.43,7.5,7.5,0,0,1-5.74.83,5.66,5.66,0,0,1-1.69-.64,6.4,6.4,0,0,1-3.11-3.88,24.19,24.19,0,0,1-.3-4.83l.07-17.89h3.16l0,17.13a16.19,16.19,0,0,0,.39,4.4,3.7,3.7,0,0,0,2.79,3,3.6,3.6,0,0,0,2.88-.55,4.23,4.23,0,0,0,1.52-2.67,27.06,27.06,0,0,0,.21-4.11l0-17.23Z"/><path d="M100.37,92.76l-.32,41.16-3.16,0,.2-27.42-5.84,11.21L85.62,106.4l-.19,27.41-3.22-.06.31-41.15,8.79,17.55Z"/></g></svg>