<svg xmlns="http://www.w3.org/2000/svg" viewBox="0 0 205 205"><defs><style>.cls-1,.cls-2,.cls-9{stroke:#666;}.cls-1,.cls-2,.cls-3,.cls-5,.cls-8,.cls-9{stroke-miterlimit:10;}.cls-1,.cls-2{stroke-width:0.25px;}.cls-2{fill:#fff;}.cls-3{fill:#999;}.cls-3,.cls-5,.cls-8{stroke:#000;}.cls-4{fill:gray;}.cls-5,.cls-6,.cls-8{fill:#666;}.cls-7{fill:#4d4d4d;}.cls-8,.cls-9{stroke-linecap:round;stroke-width:0.75px;}.cls-9{fill:none;}</style></defs><title>chum-bucket</title><g id="Layer_4" data-name="Layer 4"><path class="cls-1" d="M63.29,179.66h0Z"/><path class="cls-1" d="M63,178.88h0Z"/><path class="cls-1" d="M62.83,178.13h0Z"/><circle class="cls-2" cx="103.07" cy="102.07" r="100"/></g><g id="Layer_1" data-name="Layer 1"><path class="cls-3" d="M161.5,59.5l-18.76,123a7,7,0,0,1-6.9,6H69.16a7,7,0,0,1-6.9-6L43.5,59.5"/><path class="cls-4" d="M152.38,66l-5.82,45.79-.07.42c-.05.59-.05.72-.12,1.27-5.39,38.06-28.51,69.59-63.68,69.59-.62,0-1.23,0-1.84,0H62.78A6.93,6.93,0,0,0,69.39,188h66.16a7,7,0,0,0,6.86-5.94l18-118.88a27.59,27.59,0,0,1-3.92,1.78A29.1,29.1,0,0,1,152.38,66Z"/><ellipse class="cls-5" cx="102.47" cy="60.5" rx="59.31" ry="10"/><ellipse class="cls-6" cx="102.5" cy="60.5" rx="55.5" ry="6.5"/><path d="M102.5,54.5a341.23,341.23,0,0,1,38.79,2c15.34,1.85,16.2,4,16.21,4h0s-.81,2.2-16.21,4.06a341.23,341.23,0,0,1-38.79,2,341.23,341.23,0,0,1-38.79-2c-15.34-1.85-16.2-4-16.21-4h0s.81-2.2,16.21-4.06a341.23,341.23,0,0,1,38.79-2m0-1c-30.93,0-56,3.13-56,7s25.07,7,56,7,56-3.13,56-7-25.07-7-56-7Z"/><path class="cls-7" d="M101.56,54.5c-30,0-53.33,2.72-54,6,9.09-2,26.63-3.41,48.1-3.41,30.4,0,55.39,1.94,55.39,5.29,0,0-.6.69-.61.74,3.78-.82,7.26-2.19,7-2.65C155.76,57.5,132,54.5,101.56,54.5Z"/><path class="cls-8" d="M102.5,10.5a60,60,0,0,0-59,50h3c4.53-27,28.36-47,56-47s51.47,20,56,47h3A60,60,0,0,0,102.5,10.5Z"/><path class="cls-9" d="M44.9,59.9c0,.35,0,.7,0,1.05"/><path class="cls-9" d="M44.55,60v1.12"/><path class="cls-9" d="M45.41,60v1.17"/><path class="cls-9" d="M45.85,59.84a2.68,2.68,0,0,0,.47,1.35"/><path class="cls-9" d="M44.06,60.94,44,60.79a.77.77,0,0,1-.1-.57,1.2,1.2,0,0,1,.15-.3.27.27,0,0,1,.08-.1.21.21,0,0,1,.13,0"/><path class="cls-9" d="M160.05,60c0,.35,0,.7,0,1"/><path class="cls-9" d="M160.4,60v1.12"/><path class="cls-9" d="M159.54,60v1.17"/><path class="cls-9" d="M159.1,59.89a2.56,2.56,0,0,1-.47,1.36"/><path class="cls-9" d="M160.89,61l.11-.15a.72.72,0,0,0,.1-.57A.94.94,0,0,0,161,60a.39.39,0,0,0-.08-.1.21.21,0,0,0-.13,0"/></g></svg>